<?xml version="1.0" encoding="utf-8"?>
<!-- Generator: Adobe Illustrator 23.0.1, SVG Export Plug-In . SVG Version: 6.00 Build 0)  -->
<svg version="1.1" id="Ñëîé_1" xmlns="http://www.w3.org/2000/svg" xmlns:xlink="http://www.w3.org/1999/xlink" x="0px" y="0px"
	 viewBox="0 0 266.04 290.8" style="enable-background:new 0 0 266.04 290.8;" xml:space="preserve">
<style type="text/css">
	.st0{opacity:0.08;}
	.st1{opacity:0.9;}
	.st2{fill:#080344;}
	.st3{fill:#42E8E0;}
	.st4{fill:url(#SVGID_1_);}
	.st5{fill:url(#SVGID_2_);}
	.st6{fill:url(#SVGID_3_);}
	.st7{opacity:0.3;fill:#0F054C;}
	.st8{fill:url(#SVGID_4_);}
	.st9{fill:#0F054C;}
	.st10{fill:url(#SVGID_5_);}
	.st11{fill:url(#SVGID_6_);}
	.st12{fill:#5351AF;}
	.st13{opacity:0.4;}
	.st14{fill:#FFFFFF;}
	.st15{fill:url(#SVGID_7_);}
	.st16{opacity:0.4;fill:#42E8E0;}
	.st17{fill:url(#SVGID_8_);}
	.st18{fill:url(#SVGID_9_);}
	.st19{fill:url(#SVGID_10_);}
	.st20{opacity:0.8;fill:#42E8E0;}
	.st21{fill:url(#SVGID_11_);}
	.st22{fill:url(#SVGID_12_);}
	.st23{fill:url(#SVGID_13_);}
	.st24{fill:url(#SVGID_14_);}
	.st25{fill:url(#SVGID_15_);}
	.st26{fill:url(#SVGID_16_);}
	.st27{fill:url(#SVGID_17_);}
	.st28{fill:url(#SVGID_18_);}
	.st29{fill:url(#SVGID_19_);}
	.st30{fill:url(#SVGID_20_);}
	.st31{fill:url(#SVGID_21_);}
	.st32{fill:url(#SVGID_22_);}
	.st33{fill:url(#SVGID_23_);}
	.st34{fill:url(#SVGID_24_);}
	.st35{fill:url(#SVGID_25_);}
	.st36{opacity:0.4;fill:#7BFFF5;}
	.st37{opacity:0.8;fill:#7BFFF5;}
	.st38{fill:url(#SVGID_26_);}
	.st39{fill:url(#SVGID_27_);}
	.st40{fill:url(#SVGID_28_);}
	.st41{fill:url(#SVGID_29_);}
	.st42{fill:#251C72;}
	.st43{fill:url(#SVGID_30_);}
	.st44{opacity:0.3;}
	.st45{fill:url(#SVGID_31_);}
	.st46{opacity:0.26;fill:url(#SVGID_32_);}
	.st47{opacity:0.6;fill:#7BFFF5;}
	.st48{opacity:0.7;fill:url(#SVGID_33_);}
	.st49{fill:url(#SVGID_34_);}
	.st50{fill:url(#SVGID_35_);}
	.st51{fill:url(#SVGID_36_);}
	.st52{fill:url(#SVGID_37_);}
	.st53{opacity:0.3;fill:url(#SVGID_38_);}
	.st54{fill:url(#SVGID_39_);}
	.st55{fill:url(#SVGID_40_);}
	.st56{fill:url(#SVGID_41_);}
	.st57{fill:url(#SVGID_42_);}
	.st58{fill:url(#SVGID_43_);}
	.st59{fill:url(#SVGID_44_);}
	.st60{opacity:0.3;fill:url(#SVGID_45_);}
	.st61{fill:url(#SVGID_46_);}
	.st62{fill:url(#SVGID_47_);}
</style>
<g class="st0">
	<g class="st1">
		<path class="st2" d="M121.24,278.88L3.57,210.94c-4.76-2.75-4.76-9.62,0-12.37l117.66-67.93c7.29-4.21,16.27-4.21,23.56,0
			l117.67,67.94c4.76,2.75,4.76,9.62,0,12.37L144.8,278.88C137.51,283.09,128.53,283.09,121.24,278.88z"/>
	</g>
</g>
<g>
	<g>
		<path class="st3" d="M133.02,255.26c-4.68,0-9.35-1.03-12.91-3.08l-69.45-40.1c-3.49-2.01-5.41-4.71-5.41-7.6
			c0-2.88,1.92-5.58,5.41-7.6l69.45-40.1c7.12-4.11,18.7-4.11,25.82,0l69.45,40.1c3.49,2.02,5.41,4.71,5.41,7.6
			c0,2.88-1.92,5.58-5.41,7.6l-69.45,40.1C142.37,254.24,137.7,255.26,133.02,255.26z M133.02,154.2c-4.59,0-9.17,1.01-12.66,3.02
			l-69.45,40.1c-3.33,1.92-5.16,4.47-5.16,7.16c0,2.7,1.83,5.24,5.16,7.17l69.45,40.1c6.98,4.03,18.34,4.03,25.32,0l69.45-40.1
			c3.33-1.92,5.16-4.47,5.16-7.16c0-2.7-1.83-5.24-5.16-7.16l-69.45-40.1C142.19,155.21,137.6,154.2,133.02,154.2z"/>
		<g>
			<g>
				<g>
					<g>
						<g>
							<linearGradient id="SVGID_1_" gradientUnits="userSpaceOnUse" x1="42.723" y1="213.371" x2="223.3136" y2="213.371">
								<stop  offset="0" style="stop-color:#C895FD"/>
								<stop  offset="1" style="stop-color:#4B4BD3"/>
							</linearGradient>
							<path class="st4" d="M223.31,191.49l0-8.09l-4.35,1.99c1.64-9.91-12.84,12.72-17.28,13.34l-49.76,29.1l-21.72,1.49
								l-69.32-29.42l1.6-0.93c-5.92-2.77-9.12-9.1-12.32-14.87l-4.67,2.78l-2.77-3.23v8.09h0c0,3.08,2.03,6.17,6.1,8.51l69.45,40.1
								c8.13,4.69,21.36,4.69,29.49,0l69.45-40.1c4-2.31,6.03-5.33,6.1-8.36C223.31,191.75,223.31,191.62,223.31,191.49
								L223.31,191.49z"/>
							<g>
								<g>
									<linearGradient id="SVGID_2_" gradientUnits="userSpaceOnUse" x1="62.0647" y1="141.0572" x2="202.597" y2="222.1936">
										<stop  offset="0" style="stop-color:#BCBEFF"/>
										<stop  offset="0.2271" style="stop-color:#AAADF8"/>
										<stop  offset="0.6802" style="stop-color:#7C83E5"/>
										<stop  offset="1" style="stop-color:#5761D7"/>
									</linearGradient>
									<path class="st5" d="M223.31,184.09l0-9.38l-4.35-2.42c-1.23,7.43-9.97,12.32-17.28,13.34l-49.76,29.1l-21.72,7.84
										l-69.32-35.77l1.6-0.92c-5.92-2.77-9.12-9.1-12.32-14.87l-4.67,2.78l-2.77,0.78v9.79l0,0c0,3.08,2.03,6.17,6.1,8.51
										l69.45,40.1c8.13,4.69,21.36,4.69,29.49,0l69.45-40.1c4-2.31,6.03-5.33,6.1-8.36
										C223.31,184.36,223.31,184.22,223.31,184.09L223.31,184.09z"/>
									<linearGradient id="SVGID_3_" gradientUnits="userSpaceOnUse" x1="62.0647" y1="141.0572" x2="202.597" y2="222.1936">
										<stop  offset="0" style="stop-color:#C895FD"/>
										<stop  offset="1" style="stop-color:#4B4BD3"/>
									</linearGradient>
									<path class="st6" d="M223.31,184.09l0-9.38l-4.35-2.42c-1.23,7.43-9.97,12.32-17.28,13.34l-49.76,29.1l-21.72,7.84
										l-69.32-35.77l1.6-0.92c-5.92-2.77-9.12-9.1-12.32-14.87l-4.67,2.78l-2.77,0.78v9.79l0,0c0,3.08,2.03,6.17,6.1,8.51
										l69.45,40.1c8.13,4.69,21.36,4.69,29.49,0l69.45-40.1c4-2.31,6.03-5.33,6.1-8.36
										C223.31,184.36,223.31,184.22,223.31,184.09L223.31,184.09z"/>
									<path class="st7" d="M201.68,185.62l-49.76,29.1l-18.9,6.83v14.92c5.34,0,10.68-1.17,14.75-3.52l69.45-40.1
										c4-2.31,6.03-5.33,6.1-8.36c0-0.14,0-0.27-0.01-0.41l0.01,6.36l0-15.74l-3.98-2.21h-0.42
										C217.56,179.81,208.92,184.62,201.68,185.62z"/>
									<g>
										<linearGradient id="SVGID_4_" gradientUnits="userSpaceOnUse" x1="42.723" y1="174.709" x2="223.3136" y2="174.709">
											<stop  offset="0" style="stop-color:#E9E9FD"/>
											<stop  offset="0.3601" style="stop-color:#D3D2F9"/>
											<stop  offset="0.7062" style="stop-color:#C5C4F7"/>
											<stop  offset="1" style="stop-color:#C0BFF6"/>
										</linearGradient>
										<path class="st8" d="M118.27,223.32l-69.45-40.1c-8.13-4.69-8.13-12.33,0-17.03l69.45-40.1c8.13-4.69,21.36-4.69,29.49,0
											l69.45,40.1c8.13,4.69,8.13,12.33,0,17.03l-69.45,40.1C139.64,228.01,126.4,228.01,118.27,223.32z"/>
									</g>
									<g>
										<path class="st9" d="M125.35,199.99l-36.12-20.85c-4.23-2.44-4.23-6.41,0-8.86l36.12-20.85c4.23-2.44,11.11-2.44,15.34,0
											l36.12,20.85c4.23,2.44,4.23,6.41,0,8.86l-36.12,20.85C136.46,202.43,129.58,202.43,125.35,199.99z"/>
									</g>
									<g>
										<radialGradient id="SVGID_5_" cx="132.2391" cy="206.727" r="82.2118" gradientUnits="userSpaceOnUse">
											<stop  offset="0" style="stop-color:#42E8E0"/>
											<stop  offset="0.0796" style="stop-color:#3AC4C9"/>
											<stop  offset="0.2064" style="stop-color:#2F92A8"/>
											<stop  offset="0.3361" style="stop-color:#25678C"/>
											<stop  offset="0.4662" style="stop-color:#1D4375"/>
											<stop  offset="0.597" style="stop-color:#172863"/>
											<stop  offset="0.7289" style="stop-color:#121556"/>
											<stop  offset="0.8623" style="stop-color:#10094F"/>
											<stop  offset="1" style="stop-color:#0F054C"/>
										</radialGradient>
										<path class="st10" d="M125.35,199.99l-36.12-20.85c-4.23-2.44-4.23-6.41,0-8.86l36.12-20.85c4.23-2.44,11.11-2.44,15.34,0
											l36.12,20.85c4.23,2.44,4.23,6.41,0,8.86l-36.12,20.85C136.46,202.43,129.58,202.43,125.35,199.99z"/>
									</g>
									<radialGradient id="SVGID_6_" cx="132.2391" cy="180.9143" r="81.918" gradientUnits="userSpaceOnUse">
										<stop  offset="0" style="stop-color:#42E8E0"/>
										<stop  offset="0.0796" style="stop-color:#3AC4C9"/>
										<stop  offset="0.2064" style="stop-color:#2F92A8"/>
										<stop  offset="0.3361" style="stop-color:#25678C"/>
										<stop  offset="0.4662" style="stop-color:#1D4375"/>
										<stop  offset="0.597" style="stop-color:#172863"/>
										<stop  offset="0.7289" style="stop-color:#121556"/>
										<stop  offset="0.8623" style="stop-color:#10094F"/>
										<stop  offset="1" style="stop-color:#0F054C"/>
									</radialGradient>
									<path class="st11" d="M87.83,178.15c0.4-0.35,0.86-0.68,1.39-0.99l36.12-20.85c4.23-2.44,11.11-2.44,15.34,0l36.12,20.85
										c0.53,0.31,1,0.64,1.39,0.99c2.77-2.43,2.3-5.74-1.39-7.87l-36.12-20.85c-4.23-2.44-11.11-2.44-15.34,0l-36.12,20.85
										C85.53,172.42,85.06,175.72,87.83,178.15z"/>
									<g>
										<path class="st12" d="M133.02,224.58c-5.13,0-10.25-1.13-14.15-3.38l-66.19-38.21c-3.81-2.2-5.91-5.14-5.91-8.28
											c0-3.14,2.1-6.08,5.91-8.28l66.18-38.21c7.8-4.51,20.5-4.5,28.3,0l66.19,38.21c3.81,2.2,5.91,5.14,5.91,8.28
											c0,3.14-2.1,6.08-5.91,8.28l-66.18,38.21C143.27,223.46,138.14,224.58,133.02,224.58z M119.06,220.87
											c7.7,4.44,20.22,4.44,27.91,0l66.18-38.21c3.69-2.13,5.71-4.95,5.71-7.95c0-3-2.03-5.82-5.71-7.95l-66.19-38.21
											c-7.7-4.44-20.22-4.44-27.91,0l-66.18,38.21c-3.69,2.13-5.71,4.95-5.71,7.95c0,3,2.03,5.82,5.72,7.95L119.06,220.87z"/>
									</g>
									<g>
										<path class="st12" d="M133.02,213.22c-3.96,0-7.92-0.87-10.94-2.61l-51.05-29.47c-2.95-1.71-4.58-3.99-4.58-6.43
											c0-2.44,1.63-4.72,4.58-6.43l51.05-29.47c6.03-3.48,15.84-3.48,21.88,0L195,168.28c2.95,1.71,4.58,3.99,4.58,6.43
											c0,2.44-1.63,4.72-4.58,6.43l-51.05,29.47C140.94,212.35,136.98,213.22,133.02,213.22z M133.02,136.58
											c-3.89,0-7.78,0.86-10.74,2.57l-51.05,29.47c-2.83,1.63-4.39,3.8-4.39,6.09c0,2.29,1.56,4.46,4.39,6.09l51.05,29.47
											c5.92,3.42,15.56,3.42,21.48,0l51.05-29.47c2.83-1.63,4.39-3.79,4.39-6.09c0-2.29-1.56-4.46-4.39-6.09l-51.05-29.47
											C140.8,137.44,136.91,136.58,133.02,136.58z"/>
									</g>
									<g class="st13">
										<path class="st3" d="M125.35,199.99l-36.12-20.85c-4.23-2.44-4.23-6.41,0-8.86l36.12-20.85c4.23-2.44,11.11-2.44,15.34,0
											l36.12,20.85c4.23,2.44,4.23,6.41,0,8.86l-36.12,20.85C136.46,202.43,129.58,202.43,125.35,199.99z"/>
									</g>
									<g>
										<path class="st14" d="M217.22,183.22l-69.45,40.1c-8.13,4.69-21.36,4.69-29.49,0l-69.45-40.1
											c-3.63-2.1-5.64-4.79-6.03-7.53c-0.48,3.4,1.53,6.9,6.03,9.5l69.45,40.1c8.13,4.69,21.36,4.69,29.49,0l69.45-40.1
											c4.5-2.6,6.5-6.09,6.02-9.49C222.85,178.44,220.85,181.13,217.22,183.22z"/>
									</g>
								</g>
							</g>
						</g>
					</g>
				</g>
			</g>
			<linearGradient id="SVGID_7_" gradientUnits="userSpaceOnUse" x1="42.723" y1="147.5948" x2="223.3136" y2="147.5948">
				<stop  offset="0" style="stop-color:#C895FD"/>
				<stop  offset="1" style="stop-color:#4B4BD3"/>
			</linearGradient>
			<path class="st15" d="M217.21,139.08l-69.45-40.1c-8.13-4.69-21.36-4.7-29.49,0l-69.45,40.1c-8.13,4.69-8.13,12.33,0,17.03
				l69.45,40.1c8.13,4.69,21.36,4.69,29.49,0l69.45-40.1C225.35,151.42,225.35,143.78,217.21,139.08z"/>
			<g>
				<g>
					<g>
						<path class="st3" d="M132.47,192.02c-3.75,0-7.49-0.82-10.34-2.47l0,0l-11.95-6.98c-2.79-1.61-4.33-3.77-4.33-6.08
							c0-2.31,1.54-4.47,4.33-6.08l13.04-7.68c5.7-3.29,14.98-3.29,20.68,0l11.95,6.98c2.79,1.61,4.33,3.77,4.33,6.08
							c0,2.31-1.54,4.47-4.33,6.08l-13.05,7.68C139.96,191.19,136.22,192.02,132.47,192.02z M122.33,189.21
							c5.59,3.23,14.7,3.23,20.29,0l13.05-7.68c2.67-1.54,4.14-3.58,4.14-5.75c0-2.16-1.47-4.2-4.14-5.75l-11.95-6.98
							c-5.59-3.23-14.7-3.23-20.29,0l-13.04,7.68c-2.67,1.54-4.14,3.58-4.14,5.75c0,2.16,1.47,4.21,4.14,5.75L122.33,189.21z"/>
						<g>
							<path class="st16" d="M162.22,165.37v-6.48l-3.49,1.59c1.31-7.94-10.29,10.19-13.84,10.68l2.72-1.13l-17.4,1.19l-11.85,1.57
								l1.28-0.74c-4.75-2.22-7.3-7.29-9.87-11.92l-3.74,2.23l-2.22-2.58v6.48h0c0,2.47,1.63,4.94,4.89,6.82l11.95,6.98
								c6.51,3.76,17.11,3.76,23.63,0l13.05-7.68c3.2-1.85,4.83-4.27,4.88-6.7C162.22,165.58,162.21,165.47,162.22,165.37
								L162.22,165.37z"/>
							<g>
								<g>
									<linearGradient id="SVGID_8_" gradientUnits="userSpaceOnUse" x1="108.6639" y1="144.1169" x2="156.2368" y2="171.5832">
										<stop  offset="0" style="stop-color:#BCBEFF"/>
										<stop  offset="0.2271" style="stop-color:#AAADF8"/>
										<stop  offset="0.6802" style="stop-color:#7C83E5"/>
										<stop  offset="1" style="stop-color:#5761D7"/>
									</linearGradient>
									<path class="st17" d="M162.22,159.45v-7.52l-3.49-1.94c-0.98,5.95-7.99,9.87-13.84,10.68l2.72-1.13l-17.4,6.28l-11.85-3.52
										l1.28-0.74c-4.75-2.22-7.3-7.29-9.87-11.92l-3.74,2.23l-2.22,0.62v7.84h0c0,2.47,1.63,4.94,4.89,6.82l11.95,6.98
										c6.51,3.76,17.11,3.76,23.63,0l13.05-7.68c3.2-1.85,4.83-4.27,4.88-6.7C162.22,159.66,162.21,159.55,162.22,159.45
										L162.22,159.45z"/>
									<linearGradient id="SVGID_9_" gradientUnits="userSpaceOnUse" x1="108.6639" y1="144.1169" x2="156.2368" y2="171.5832">
										<stop  offset="0" style="stop-color:#706EC4"/>
										<stop  offset="0.0222" style="stop-color:#6D6BC2"/>
										<stop  offset="0.2509" style="stop-color:#5651AC"/>
										<stop  offset="0.4865" style="stop-color:#463F9D"/>
										<stop  offset="0.7314" style="stop-color:#3C3494"/>
										<stop  offset="1" style="stop-color:#393091"/>
									</linearGradient>
									<path class="st18" d="M162.22,159.45v-7.52l-3.49-1.94c-0.98,5.95-7.99,9.87-13.84,10.68l2.72-1.13l-17.4,6.28l-11.85-3.52
										l1.28-0.74c-4.75-2.22-7.3-7.29-9.87-11.92l-3.74,2.23l-2.22,0.62v7.84h0c0,2.47,1.63,4.94,4.89,6.82l11.95,6.98
										c6.51,3.76,17.11,3.76,23.63,0l13.05-7.68c3.2-1.85,4.83-4.27,4.88-6.7C162.22,159.66,162.21,159.55,162.22,159.45
										L162.22,159.45z"/>
									<path class="st7" d="M144.89,160.67l2.72-1.13l-15.14,5.47v11.96c4.28,0,8.56-0.94,11.82-2.82l13.05-7.68
										c3.2-1.85,4.83-4.27,4.88-6.7c0-0.11,0-0.22-0.01-0.33l0.01,5.09v-12.61l-3.19-1.77h-0.33
										C157.61,156.01,150.69,159.87,144.89,160.67z"/>
									<g>
										<linearGradient id="SVGID_10_" gradientUnits="userSpaceOnUse" x1="103.8187" y1="152.2793" x2="162.218" y2="152.2793">
											<stop  offset="0" style="stop-color:#E9E9FD"/>
											<stop  offset="0.3601" style="stop-color:#D3D2F9"/>
											<stop  offset="0.7062" style="stop-color:#C5C4F7"/>
											<stop  offset="1" style="stop-color:#C0BFF6"/>
										</linearGradient>
										<path class="st19" d="M120.66,166.43l-11.95-6.98c-6.51-3.76-6.51-9.88,0-13.64l13.05-7.68c6.51-3.76,17.11-3.76,23.63,0
											l11.95,6.98c6.51,3.76,6.51,9.88,0,13.64l-13.05,7.68C137.77,170.19,127.17,170.19,120.66,166.43z"/>
									</g>
									<g>
										<path class="st12" d="M132.54,167.36c-3.79,0-7.58-0.83-10.47-2.5h0l-10.51-6.14c-2.82-1.63-4.37-3.81-4.37-6.13
											c0-2.33,1.55-4.5,4.37-6.13l11.47-6.75c5.77-3.33,15.16-3.33,20.94,0l10.51,6.14c2.82,1.63,4.37,3.81,4.37,6.13
											c0,2.33-1.55,4.5-4.37,6.13l-11.47,6.75C140.12,166.53,136.33,167.36,132.54,167.36z M122.23,164.59
											c5.69,3.28,14.94,3.28,20.62,0l11.47-6.75c2.72-1.57,4.22-3.65,4.22-5.86c0-2.21-1.5-4.29-4.22-5.86l-10.51-6.14
											c-5.68-3.28-14.94-3.28-20.62,0l-11.47,6.75c-2.72,1.57-4.22,3.65-4.22,5.86c0,2.21,1.5,4.29,4.22,5.86L122.23,164.59z"/>
									</g>
									<g>
										<path class="st14" d="M157.33,158.75l-13.05,7.68c-6.51,3.76-17.11,3.76-23.63,0l-11.95-6.98
											c-2.91-1.68-4.52-3.83-4.83-6.04c-0.38,2.73,1.22,5.53,4.83,7.61l11.95,6.98c6.51,3.76,17.11,3.76,23.63,0l13.05-7.68
											c3.6-2.08,5.21-4.88,4.83-7.61C161.85,154.92,160.24,157.07,157.33,158.75z"/>
									</g>
								</g>
							</g>
							<g>
								<path class="st16" d="M118.37,166.19l1.1-0.15c-0.15-0.07-0.3-0.15-0.45-0.23L118.37,166.19z"/>
								<path class="st16" d="M145.67,164.25l-0.06,0l-0.73,0.3C145.12,164.52,145.38,164.41,145.67,164.25z"/>
								<path class="st16" d="M158.82,153.83c0.02-0.25,0.02-0.45,0-0.63c-0.02,0.2-0.04,0.42-0.09,0.67L158.82,153.83z"/>
								<path class="st20" d="M162.22,158.76L162.22,158.76c0,0.11,0,0.21,0,0.32c-0.05,2.43-1.68,4.85-4.88,6.7l-13.05,7.68
									c-6.51,3.76-17.11,3.76-23.63,0l-11.95-6.98c-3.26-1.88-4.89-4.35-4.89-6.82h0v0.69h0c0,2.47,1.63,4.94,4.89,6.82
									l11.95,6.98c6.51,3.76,17.11,3.76,23.63,0l13.05-7.68c3.2-1.85,4.83-4.27,4.88-6.7c0-0.11,0-0.22-0.01-0.33l0.01,0V158.76z"
									/>
							</g>
						</g>
						<g>
							<path class="st16" d="M162.22,153.3v-6.48l-3.49,1.59c1.31-7.94-10.29,10.19-13.84,10.68l2.72-1.13l-17.4,1.19l-11.85,1.57
								l1.28-0.74c-4.75-2.22-7.3-7.29-9.87-11.92l-3.74,2.23l-2.22-2.58v6.48h0c0,2.47,1.63,4.94,4.89,6.82l11.95,6.98
								c6.51,3.76,17.11,3.76,23.63,0l13.05-7.68c3.2-1.85,4.83-4.27,4.88-6.7C162.22,153.51,162.21,153.4,162.22,153.3
								L162.22,153.3z"/>
							<g>
								<g>
									<linearGradient id="SVGID_11_" gradientUnits="userSpaceOnUse" x1="108.6639" y1="132.0465" x2="156.2368" y2="159.5127">
										<stop  offset="0" style="stop-color:#BCBEFF"/>
										<stop  offset="0.2271" style="stop-color:#AAADF8"/>
										<stop  offset="0.6802" style="stop-color:#7C83E5"/>
										<stop  offset="1" style="stop-color:#5761D7"/>
									</linearGradient>
									<path class="st21" d="M162.22,147.37v-7.52l-3.49-1.94c-0.98,5.95-7.99,9.87-13.84,10.68l2.72-1.13l-17.4,6.28l-11.85-3.52
										l1.28-0.74c-4.75-2.22-7.3-7.29-9.87-11.92l-3.74,2.23l-2.22,0.62v7.84h0c0,2.47,1.63,4.94,4.89,6.82l11.95,6.98
										c6.51,3.76,17.11,3.76,23.63,0l13.05-7.68c3.2-1.85,4.83-4.27,4.88-6.7C162.22,147.59,162.21,147.48,162.22,147.37
										L162.22,147.37z"/>
									<linearGradient id="SVGID_12_" gradientUnits="userSpaceOnUse" x1="108.6639" y1="132.0465" x2="156.2368" y2="159.5127">
										<stop  offset="0" style="stop-color:#706EC4"/>
										<stop  offset="0.0222" style="stop-color:#6D6BC2"/>
										<stop  offset="0.2509" style="stop-color:#5651AC"/>
										<stop  offset="0.4865" style="stop-color:#463F9D"/>
										<stop  offset="0.7314" style="stop-color:#3C3494"/>
										<stop  offset="1" style="stop-color:#393091"/>
									</linearGradient>
									<path class="st22" d="M162.22,147.37v-7.52l-3.49-1.94c-0.98,5.95-7.99,9.87-13.84,10.68l2.72-1.13l-17.4,6.28l-11.85-3.52
										l1.28-0.74c-4.75-2.22-7.3-7.29-9.87-11.92l-3.74,2.23l-2.22,0.62v7.84h0c0,2.47,1.63,4.94,4.89,6.82l11.95,6.98
										c6.51,3.76,17.11,3.76,23.63,0l13.05-7.68c3.2-1.85,4.83-4.27,4.88-6.7C162.22,147.59,162.21,147.48,162.22,147.37
										L162.22,147.37z"/>
									<path class="st7" d="M144.89,148.6l2.72-1.13l-15.14,5.47v11.96c4.28,0,8.56-0.94,11.82-2.82l13.05-7.68
										c3.2-1.85,4.83-4.27,4.88-6.7c0-0.11,0-0.22-0.01-0.33l0.01,5.09v-12.61l-3.19-1.77h-0.33
										C157.61,143.94,150.69,147.8,144.89,148.6z"/>
									<g>
										<linearGradient id="SVGID_13_" gradientUnits="userSpaceOnUse" x1="103.8187" y1="140.2089" x2="162.218" y2="140.2089">
											<stop  offset="0" style="stop-color:#E9E9FD"/>
											<stop  offset="0.3601" style="stop-color:#D3D2F9"/>
											<stop  offset="0.7062" style="stop-color:#C5C4F7"/>
											<stop  offset="1" style="stop-color:#C0BFF6"/>
										</linearGradient>
										<path class="st23" d="M120.66,154.36l-11.95-6.98c-6.51-3.76-6.51-9.88,0-13.64l13.05-7.68c6.51-3.76,17.11-3.76,23.63,0
											l11.95,6.98c6.51,3.76,6.51,9.88,0,13.64l-13.05,7.68C137.77,158.12,127.17,158.12,120.66,154.36z"/>
									</g>
									<g>
										<path class="st12" d="M132.54,155.29c-3.79,0-7.58-0.83-10.47-2.5h0l-10.51-6.14c-2.82-1.63-4.37-3.81-4.37-6.13
											c0-2.33,1.55-4.5,4.37-6.13l11.47-6.75c5.77-3.33,15.16-3.33,20.94,0l10.51,6.14c2.82,1.63,4.37,3.81,4.37,6.13
											c0,2.33-1.55,4.5-4.37,6.13l-11.47,6.75C140.12,154.45,136.33,155.29,132.54,155.29z M122.23,152.52
											c5.69,3.28,14.94,3.28,20.62,0l11.47-6.75c2.72-1.57,4.22-3.65,4.22-5.86c0-2.21-1.5-4.29-4.22-5.86l-10.51-6.14
											c-5.68-3.28-14.94-3.28-20.62,0l-11.47,6.75c-2.72,1.57-4.22,3.65-4.22,5.86c0,2.21,1.5,4.29,4.22,5.86L122.23,152.52z"/>
									</g>
									<g>
										<path class="st14" d="M157.33,146.68l-13.05,7.68c-6.51,3.76-17.11,3.76-23.63,0l-11.95-6.98
											c-2.91-1.68-4.52-3.83-4.83-6.04c-0.38,2.72,1.22,5.53,4.83,7.61l11.95,6.98c6.51,3.76,17.11,3.76,23.63,0l13.05-7.68
											c3.6-2.08,5.21-4.88,4.83-7.61C161.85,142.85,160.24,145,157.33,146.68z"/>
									</g>
								</g>
							</g>
							<g>
								<path class="st16" d="M118.37,154.12l1.1-0.15c-0.15-0.07-0.3-0.15-0.45-0.23L118.37,154.12z"/>
								<path class="st16" d="M145.67,152.17l-0.06,0l-0.73,0.3C145.12,152.45,145.38,152.34,145.67,152.17z"/>
								<path class="st16" d="M158.82,141.75c0.02-0.25,0.02-0.45,0-0.63c-0.02,0.2-0.04,0.42-0.09,0.67L158.82,141.75z"/>
								<path class="st20" d="M162.22,146.69L162.22,146.69c0,0.11,0,0.21,0,0.32c-0.05,2.43-1.68,4.85-4.88,6.7l-13.05,7.68
									c-6.51,3.76-17.11,3.76-23.63,0l-11.95-6.98c-3.26-1.88-4.89-4.35-4.89-6.82h0v0.69h0c0,2.47,1.63,4.94,4.89,6.82
									l11.95,6.98c6.51,3.76,17.11,3.76,23.63,0l13.05-7.68c3.2-1.85,4.83-4.27,4.88-6.7c0-0.11,0-0.22-0.01-0.33l0.01,0V146.69z"
									/>
							</g>
						</g>
						<g>
							<path class="st16" d="M162.22,141.23v-6.48l-3.49,1.59c1.31-7.94-10.29,10.19-13.84,10.68l2.72-1.13l-17.4,1.19l-11.85,1.57
								l1.28-0.74c-4.75-2.22-7.3-7.29-9.87-11.92l-3.74,2.23l-2.22-2.58v6.48h0c0,2.47,1.63,4.94,4.89,6.82l11.95,6.98
								c6.51,3.76,17.11,3.76,23.63,0l13.05-7.68c3.2-1.85,4.83-4.27,4.88-6.7C162.22,141.44,162.21,141.33,162.22,141.23
								L162.22,141.23z"/>
							<g>
								<g>
									<linearGradient id="SVGID_14_" gradientUnits="userSpaceOnUse" x1="108.6638" y1="119.9761" x2="156.2368" y2="147.4423">
										<stop  offset="0" style="stop-color:#BCBEFF"/>
										<stop  offset="0.2271" style="stop-color:#AAADF8"/>
										<stop  offset="0.6802" style="stop-color:#7C83E5"/>
										<stop  offset="1" style="stop-color:#5761D7"/>
									</linearGradient>
									<path class="st24" d="M162.22,135.3v-7.52l-3.49-1.94c-0.98,5.95-7.99,9.87-13.84,10.68l2.72-1.13l-17.4,6.28l-11.85-3.52
										l1.28-0.74c-4.75-2.22-7.3-7.29-9.87-11.92l-3.74,2.23l-2.22,0.62v7.84h0c0,2.47,1.63,4.94,4.89,6.82l11.95,6.98
										c6.51,3.76,17.11,3.76,23.63,0l13.05-7.68c3.2-1.85,4.83-4.27,4.88-6.7C162.22,135.52,162.21,135.41,162.22,135.3
										L162.22,135.3z"/>
									<linearGradient id="SVGID_15_" gradientUnits="userSpaceOnUse" x1="108.6638" y1="119.9761" x2="156.2368" y2="147.4423">
										<stop  offset="0" style="stop-color:#706EC4"/>
										<stop  offset="0.0222" style="stop-color:#6D6BC2"/>
										<stop  offset="0.2509" style="stop-color:#5651AC"/>
										<stop  offset="0.4865" style="stop-color:#463F9D"/>
										<stop  offset="0.7314" style="stop-color:#3C3494"/>
										<stop  offset="1" style="stop-color:#393091"/>
									</linearGradient>
									<path class="st25" d="M162.22,135.3v-7.52l-3.49-1.94c-0.98,5.95-7.99,9.87-13.84,10.68l2.72-1.13l-17.4,6.28l-11.85-3.52
										l1.28-0.74c-4.75-2.22-7.3-7.29-9.87-11.92l-3.74,2.23l-2.22,0.62v7.84h0c0,2.47,1.63,4.94,4.89,6.82l11.95,6.98
										c6.51,3.76,17.11,3.76,23.63,0l13.05-7.68c3.2-1.85,4.83-4.27,4.88-6.7C162.22,135.52,162.21,135.41,162.22,135.3
										L162.22,135.3z"/>
									<path class="st7" d="M144.89,136.53l2.72-1.13l-15.14,5.47v11.96c4.28,0,8.56-0.94,11.82-2.82l13.05-7.68
										c3.2-1.85,4.83-4.27,4.88-6.7c0-0.11,0-0.22-0.01-0.33l0.01,5.09v-12.61l-3.19-1.77h-0.33
										C157.61,131.87,150.69,135.73,144.89,136.53z"/>
									<g>
										<linearGradient id="SVGID_16_" gradientUnits="userSpaceOnUse" x1="103.8187" y1="128.1385" x2="162.218" y2="128.1385">
											<stop  offset="0" style="stop-color:#E9E9FD"/>
											<stop  offset="0.3601" style="stop-color:#D3D2F9"/>
											<stop  offset="0.7062" style="stop-color:#C5C4F7"/>
											<stop  offset="1" style="stop-color:#C0BFF6"/>
										</linearGradient>
										<path class="st26" d="M120.66,142.29l-11.95-6.98c-6.51-3.76-6.51-9.88,0-13.64l13.05-7.68c6.51-3.76,17.11-3.76,23.63,0
											l11.95,6.98c6.51,3.76,6.51,9.88,0,13.64l-13.05,7.68C137.77,146.05,127.17,146.05,120.66,142.29z"/>
									</g>
									<g>
										<path class="st12" d="M132.54,143.22c-3.79,0-7.58-0.83-10.47-2.5h0l-10.51-6.14c-2.82-1.63-4.37-3.81-4.37-6.13
											c0-2.33,1.55-4.5,4.37-6.13l11.47-6.75c5.77-3.33,15.16-3.33,20.94,0l10.51,6.14c2.82,1.63,4.37,3.81,4.37,6.13
											c0,2.33-1.55,4.5-4.37,6.13l-11.47,6.75C140.12,142.38,136.33,143.22,132.54,143.22z M122.23,140.45
											c5.68,3.28,14.94,3.28,20.62,0l11.47-6.75c2.72-1.57,4.22-3.65,4.22-5.86c0-2.21-1.5-4.29-4.22-5.86l-10.51-6.14
											c-5.68-3.28-14.94-3.28-20.62,0l-11.47,6.75c-2.72,1.57-4.22,3.65-4.22,5.86c0,2.21,1.5,4.29,4.22,5.86L122.23,140.45z"/>
									</g>
									<g>
										<path class="st14" d="M157.33,134.61l-13.05,7.68c-6.51,3.76-17.11,3.76-23.63,0l-11.95-6.98
											c-2.91-1.68-4.52-3.83-4.83-6.04c-0.38,2.73,1.22,5.53,4.83,7.61l11.95,6.98c6.51,3.76,17.11,3.76,23.63,0l13.05-7.68
											c3.6-2.08,5.21-4.88,4.83-7.61C161.85,130.78,160.24,132.93,157.33,134.61z"/>
									</g>
								</g>
							</g>
							<g>
								<path class="st16" d="M118.37,142.05l1.1-0.15c-0.15-0.07-0.3-0.15-0.45-0.23L118.37,142.05z"/>
								<path class="st16" d="M145.67,140.1l-0.06,0l-0.73,0.3C145.12,140.38,145.38,140.27,145.67,140.1z"/>
								<path class="st16" d="M158.82,129.68c0.02-0.25,0.02-0.45,0-0.63c-0.02,0.2-0.04,0.42-0.09,0.67L158.82,129.68z"/>
								<path class="st20" d="M162.22,134.62L162.22,134.62c0,0.11,0,0.21,0,0.32c-0.05,2.43-1.68,4.85-4.88,6.7l-13.05,7.68
									c-6.51,3.76-17.11,3.76-23.63,0l-11.95-6.98c-3.26-1.88-4.89-4.35-4.89-6.82h0v0.69h0c0,2.47,1.63,4.94,4.89,6.82
									l11.95,6.98c6.51,3.76,17.11,3.76,23.63,0l13.05-7.68c3.2-1.85,4.83-4.27,4.88-6.7c0-0.11,0-0.22-0.01-0.33l0.01,0V134.62z"
									/>
							</g>
						</g>
						<g>
							<path class="st16" d="M162.22,129.16v-6.48l-3.49,1.59c1.31-7.94-10.29,10.19-13.84,10.68l2.72-1.13l-17.4,1.19l-11.85,1.57
								l1.28-0.74c-4.75-2.22-7.3-7.29-9.87-11.92l-3.74,2.23l-2.22-2.58v6.48h0c0,2.47,1.63,4.94,4.89,6.82l11.95,6.98
								c6.51,3.76,17.11,3.76,23.63,0l13.05-7.68c3.2-1.85,4.83-4.27,4.88-6.7C162.22,129.37,162.21,129.26,162.22,129.16
								L162.22,129.16z"/>
							<g>
								<g>
									<linearGradient id="SVGID_17_" gradientUnits="userSpaceOnUse" x1="108.6638" y1="107.9057" x2="156.2368" y2="135.3719">
										<stop  offset="0" style="stop-color:#BCBEFF"/>
										<stop  offset="0.2271" style="stop-color:#AAADF8"/>
										<stop  offset="0.6802" style="stop-color:#7C83E5"/>
										<stop  offset="1" style="stop-color:#5761D7"/>
									</linearGradient>
									<path class="st27" d="M162.22,123.23v-7.52l-3.49-1.94c-0.98,5.95-7.99,9.87-13.84,10.68l2.72-1.13l-17.4,6.28l-11.85-3.52
										l1.28-0.74c-4.75-2.22-7.3-7.29-9.87-11.92l-3.74,2.23l-2.22,0.62v7.84h0c0,2.47,1.63,4.94,4.89,6.82l11.95,6.98
										c6.51,3.76,17.11,3.76,23.63,0l13.05-7.68c3.2-1.85,4.83-4.27,4.88-6.7C162.22,123.45,162.21,123.34,162.22,123.23
										L162.22,123.23z"/>
									<linearGradient id="SVGID_18_" gradientUnits="userSpaceOnUse" x1="108.6638" y1="107.9057" x2="156.2368" y2="135.3719">
										<stop  offset="0" style="stop-color:#706EC4"/>
										<stop  offset="0.0222" style="stop-color:#6D6BC2"/>
										<stop  offset="0.2509" style="stop-color:#5651AC"/>
										<stop  offset="0.4865" style="stop-color:#463F9D"/>
										<stop  offset="0.7314" style="stop-color:#3C3494"/>
										<stop  offset="1" style="stop-color:#393091"/>
									</linearGradient>
									<path class="st28" d="M162.22,123.23v-7.52l-3.49-1.94c-0.98,5.95-7.99,9.87-13.84,10.68l2.72-1.13l-17.4,6.28l-11.85-3.52
										l1.28-0.74c-4.75-2.22-7.3-7.29-9.87-11.92l-3.74,2.23l-2.22,0.62v7.84h0c0,2.47,1.63,4.94,4.89,6.82l11.95,6.98
										c6.51,3.76,17.11,3.76,23.63,0l13.05-7.68c3.2-1.85,4.83-4.27,4.88-6.7C162.22,123.45,162.21,123.34,162.22,123.23
										L162.22,123.23z"/>
									<path class="st7" d="M144.89,124.46l2.72-1.13l-15.14,5.47v11.96c4.28,0,8.56-0.94,11.82-2.82l13.05-7.68
										c3.2-1.85,4.83-4.27,4.88-6.7c0-0.11,0-0.22-0.01-0.33l0.01,5.09v-12.61l-3.19-1.77h-0.33
										C157.61,119.8,150.69,123.66,144.89,124.46z"/>
									<g>
										<linearGradient id="SVGID_19_" gradientUnits="userSpaceOnUse" x1="103.8187" y1="116.0681" x2="162.218" y2="116.0681">
											<stop  offset="0" style="stop-color:#E9E9FD"/>
											<stop  offset="0.3601" style="stop-color:#D3D2F9"/>
											<stop  offset="0.7062" style="stop-color:#C5C4F7"/>
											<stop  offset="1" style="stop-color:#C0BFF6"/>
										</linearGradient>
										<path class="st29" d="M120.66,130.22l-11.95-6.98c-6.51-3.76-6.51-9.88,0-13.64l13.05-7.68c6.51-3.76,17.11-3.76,23.63,0
											l11.95,6.98c6.51,3.76,6.51,9.88,0,13.64l-13.05,7.68C137.77,133.98,127.17,133.98,120.66,130.22z"/>
									</g>
									<g>
										<path class="st12" d="M132.54,131.15c-3.79,0-7.58-0.83-10.47-2.5l0,0l-10.51-6.14c-2.82-1.63-4.37-3.81-4.37-6.13
											c0-2.33,1.55-4.5,4.37-6.13l11.47-6.75c5.77-3.33,15.16-3.33,20.94,0l10.51,6.14c2.82,1.63,4.37,3.81,4.37,6.13
											c0,2.33-1.55,4.5-4.37,6.13l-11.47,6.75C140.12,130.31,136.33,131.15,132.54,131.15z M122.23,128.38
											c5.69,3.28,14.94,3.28,20.62,0l11.47-6.75c2.72-1.57,4.22-3.65,4.22-5.86c0-2.21-1.5-4.29-4.22-5.86l-10.51-6.14
											c-5.68-3.28-14.94-3.28-20.62,0l-11.47,6.75c-2.72,1.57-4.22,3.65-4.22,5.86c0,2.21,1.5,4.29,4.22,5.86L122.23,128.38z"/>
									</g>
									<g>
										<path class="st14" d="M157.33,122.54l-13.05,7.68c-6.51,3.76-17.11,3.76-23.63,0l-11.95-6.98
											c-2.91-1.68-4.52-3.83-4.83-6.04c-0.38,2.73,1.22,5.53,4.83,7.61l11.95,6.98c6.51,3.76,17.11,3.76,23.63,0l13.05-7.68
											c3.6-2.08,5.21-4.88,4.83-7.61C161.85,118.71,160.24,120.86,157.33,122.54z"/>
									</g>
								</g>
							</g>
							<g>
								<path class="st16" d="M118.37,129.98l1.1-0.15c-0.15-0.07-0.3-0.15-0.45-0.23L118.37,129.98z"/>
								<path class="st16" d="M145.67,128.03l-0.06,0l-0.73,0.3C145.12,128.31,145.38,128.2,145.67,128.03z"/>
								<path class="st16" d="M158.82,117.61c0.02-0.25,0.02-0.46,0-0.63c-0.02,0.2-0.04,0.42-0.09,0.67L158.82,117.61z"/>
								<path class="st20" d="M162.22,122.54L162.22,122.54c0,0.11,0,0.21,0,0.32c-0.05,2.43-1.68,4.85-4.88,6.7l-13.05,7.68
									c-6.51,3.76-17.11,3.76-23.63,0l-11.95-6.98c-3.26-1.88-4.89-4.35-4.89-6.82h0v0.69h0c0,2.47,1.63,4.94,4.89,6.82
									l11.95,6.98c6.51,3.76,17.11,3.76,23.63,0l13.05-7.68c3.2-1.85,4.83-4.27,4.88-6.7c0-0.11,0-0.22-0.01-0.33l0.01,0V122.54z"
									/>
							</g>
						</g>
						<g>
							<path class="st16" d="M162.22,117.09v-6.48l-3.49,1.59c1.31-7.94-10.29,10.19-13.84,10.68l2.72-1.13l-17.4,1.19l-11.85,1.57
								l1.28-0.74c-4.75-2.22-7.3-7.29-9.87-11.92l-3.74,2.23l-2.22-2.58v6.48l0,0c0,2.47,1.63,4.94,4.89,6.82l11.95,6.98
								c6.51,3.76,17.11,3.76,23.63,0l13.05-7.68c3.2-1.85,4.83-4.27,4.88-6.7C162.22,117.3,162.21,117.19,162.22,117.09
								L162.22,117.09z"/>
							<g>
								<g>
									<linearGradient id="SVGID_20_" gradientUnits="userSpaceOnUse" x1="108.6638" y1="95.8353" x2="156.2368" y2="123.3015">
										<stop  offset="0" style="stop-color:#BCBEFF"/>
										<stop  offset="0.2271" style="stop-color:#AAADF8"/>
										<stop  offset="0.6802" style="stop-color:#7C83E5"/>
										<stop  offset="1" style="stop-color:#5761D7"/>
									</linearGradient>
									<path class="st30" d="M162.22,111.16v-7.52l-3.49-1.94c-0.98,5.95-7.99,9.87-13.84,10.68l2.72-1.13l-17.4,6.28l-11.85-3.52
										l1.28-0.74c-4.75-2.22-7.3-7.29-9.87-11.92l-3.74,2.23l-2.22,0.62v7.84l0,0c0,2.47,1.63,4.94,4.89,6.82l11.95,6.98
										c6.51,3.76,17.11,3.76,23.63,0l13.05-7.68c3.2-1.85,4.83-4.27,4.88-6.7C162.22,111.38,162.21,111.27,162.22,111.16
										L162.22,111.16z"/>
									<linearGradient id="SVGID_21_" gradientUnits="userSpaceOnUse" x1="108.6638" y1="95.8353" x2="156.2368" y2="123.3015">
										<stop  offset="0" style="stop-color:#706EC4"/>
										<stop  offset="0.0222" style="stop-color:#6D6BC2"/>
										<stop  offset="0.2509" style="stop-color:#5651AC"/>
										<stop  offset="0.4865" style="stop-color:#463F9D"/>
										<stop  offset="0.7314" style="stop-color:#3C3494"/>
										<stop  offset="1" style="stop-color:#393091"/>
									</linearGradient>
									<path class="st31" d="M162.22,111.16v-7.52l-3.49-1.94c-0.98,5.95-7.99,9.87-13.84,10.68l2.72-1.13l-17.4,6.28l-11.85-3.52
										l1.28-0.74c-4.75-2.22-7.3-7.29-9.87-11.92l-3.74,2.23l-2.22,0.62v7.84l0,0c0,2.47,1.63,4.94,4.89,6.82l11.95,6.98
										c6.51,3.76,17.11,3.76,23.63,0l13.05-7.68c3.2-1.85,4.83-4.27,4.88-6.7C162.22,111.38,162.21,111.27,162.22,111.16
										L162.22,111.16z"/>
									<path class="st7" d="M144.89,112.39l2.72-1.13l-15.14,5.47v11.96c4.28,0,8.56-0.94,11.82-2.82l13.05-7.68
										c3.2-1.85,4.83-4.27,4.88-6.7c0-0.11,0-0.22-0.01-0.33l0.01,5.09v-12.61l-3.19-1.77h-0.33
										C157.61,107.73,150.69,111.58,144.89,112.39z"/>
									<g>
										<linearGradient id="SVGID_22_" gradientUnits="userSpaceOnUse" x1="103.8187" y1="103.9977" x2="162.218" y2="103.9977">
											<stop  offset="0" style="stop-color:#E9E9FD"/>
											<stop  offset="0.3601" style="stop-color:#D3D2F9"/>
											<stop  offset="0.7062" style="stop-color:#C5C4F7"/>
											<stop  offset="1" style="stop-color:#C0BFF6"/>
										</linearGradient>
										<path class="st32" d="M120.66,118.15l-11.95-6.98c-6.51-3.76-6.51-9.88,0-13.64l13.05-7.68c6.51-3.76,17.11-3.76,23.63,0
											l11.95,6.98c6.51,3.76,6.51,9.88,0,13.64l-13.05,7.68C137.77,121.91,127.17,121.91,120.66,118.15z"/>
									</g>
									<g>
										<path class="st12" d="M132.54,119.08c-3.79,0-7.58-0.83-10.47-2.5l0,0l-10.51-6.14c-2.82-1.63-4.37-3.81-4.37-6.13
											c0-2.33,1.55-4.5,4.37-6.13l11.47-6.75c5.77-3.33,15.16-3.33,20.94,0l10.51,6.14c2.82,1.63,4.37,3.81,4.37,6.13
											c0,2.33-1.55,4.5-4.37,6.13l-11.47,6.75C140.12,118.24,136.33,119.08,132.54,119.08z M122.23,116.31
											c5.69,3.28,14.94,3.28,20.62,0l11.47-6.75c2.72-1.57,4.22-3.65,4.22-5.86c0-2.21-1.5-4.29-4.22-5.86l-10.51-6.14
											c-5.69-3.28-14.94-3.28-20.62,0l-11.47,6.75c-2.72,1.57-4.22,3.65-4.22,5.86c0,2.21,1.5,4.29,4.22,5.86L122.23,116.31z"/>
									</g>
									<g>
										<path class="st14" d="M157.33,110.47l-13.05,7.68c-6.51,3.76-17.11,3.76-23.63,0l-11.95-6.98
											c-2.91-1.68-4.52-3.83-4.83-6.04c-0.38,2.72,1.22,5.53,4.83,7.61l11.95,6.98c6.51,3.76,17.11,3.76,23.63,0l13.05-7.68
											c3.6-2.08,5.21-4.88,4.83-7.61C161.85,106.64,160.24,108.79,157.33,110.47z"/>
									</g>
								</g>
							</g>
							<g>
								<path class="st16" d="M118.37,117.91l1.1-0.15c-0.15-0.07-0.3-0.15-0.45-0.23L118.37,117.91z"/>
								<path class="st16" d="M145.67,115.96l-0.06,0l-0.73,0.3C145.12,116.24,145.38,116.13,145.67,115.96z"/>
								<path class="st16" d="M158.82,105.54c0.02-0.25,0.02-0.45,0-0.63c-0.02,0.2-0.04,0.42-0.09,0.67L158.82,105.54z"/>
								<path class="st20" d="M162.22,110.47L162.22,110.47c0,0.11,0,0.21,0,0.32c-0.05,2.43-1.68,4.85-4.88,6.7l-13.05,7.68
									c-6.51,3.76-17.11,3.76-23.63,0l-11.95-6.98c-3.26-1.88-4.89-4.35-4.89-6.82h0v0.69h0c0,2.47,1.63,4.94,4.89,6.82
									l11.95,6.98c6.51,3.76,17.11,3.76,23.63,0l13.05-7.68c3.2-1.85,4.83-4.27,4.88-6.7c0-0.11,0-0.22-0.01-0.33l0.01,0V110.47z"
									/>
							</g>
						</g>
						<g>
							<path class="st16" d="M162.22,105.02v-6.48l-3.49,1.59c1.31-7.94-10.29,10.19-13.84,10.68l2.72-1.13l-17.4,1.19l-11.85,1.57
								l1.28-0.74c-4.75-2.22-7.3-7.29-9.87-11.92l-3.74,2.23l-2.22-2.58v6.48l0,0c0,2.47,1.63,4.94,4.89,6.82l11.95,6.98
								c6.51,3.76,17.11,3.76,23.63,0l13.05-7.68c3.2-1.85,4.83-4.27,4.88-6.7C162.22,105.23,162.21,105.12,162.22,105.02
								L162.22,105.02z"/>
							<g>
								<g>
									<linearGradient id="SVGID_23_" gradientUnits="userSpaceOnUse" x1="108.6638" y1="83.7649" x2="156.2368" y2="111.2311">
										<stop  offset="0" style="stop-color:#BCBEFF"/>
										<stop  offset="0.2271" style="stop-color:#AAADF8"/>
										<stop  offset="0.6802" style="stop-color:#7C83E5"/>
										<stop  offset="1" style="stop-color:#5761D7"/>
									</linearGradient>
									<path class="st33" d="M162.22,99.09v-7.52l-3.49-1.94c-0.98,5.95-7.99,9.87-13.84,10.68l2.72-1.13l-17.4,6.28l-11.85-3.52
										l1.28-0.74c-4.75-2.22-7.3-7.29-9.87-11.92l-3.74,2.23l-2.22,0.62V100l0,0c0,2.47,1.63,4.94,4.89,6.82l11.95,6.98
										c6.51,3.76,17.11,3.76,23.63,0l13.05-7.68c3.2-1.85,4.83-4.27,4.88-6.7C162.22,99.31,162.21,99.2,162.22,99.09
										L162.22,99.09z"/>
									<linearGradient id="SVGID_24_" gradientUnits="userSpaceOnUse" x1="108.6638" y1="83.7649" x2="156.2368" y2="111.2311">
										<stop  offset="0" style="stop-color:#706EC4"/>
										<stop  offset="0.0222" style="stop-color:#6D6BC2"/>
										<stop  offset="0.2509" style="stop-color:#5651AC"/>
										<stop  offset="0.4865" style="stop-color:#463F9D"/>
										<stop  offset="0.7314" style="stop-color:#3C3494"/>
										<stop  offset="1" style="stop-color:#393091"/>
									</linearGradient>
									<path class="st34" d="M162.22,99.09v-7.52l-3.49-1.94c-0.98,5.95-7.99,9.87-13.84,10.68l2.72-1.13l-17.4,6.28l-11.85-3.52
										l1.28-0.74c-4.75-2.22-7.3-7.29-9.87-11.92l-3.74,2.23l-2.22,0.62V100l0,0c0,2.47,1.63,4.94,4.89,6.82l11.95,6.98
										c6.51,3.76,17.11,3.76,23.63,0l13.05-7.68c3.2-1.85,4.83-4.27,4.88-6.7C162.22,99.31,162.21,99.2,162.22,99.09
										L162.22,99.09z"/>
									<path class="st7" d="M144.89,100.32l2.72-1.13l-15.14,5.47v11.96c4.28,0,8.56-0.94,11.82-2.82l13.05-7.68
										c3.2-1.85,4.83-4.27,4.88-6.7c0-0.11,0-0.22-0.01-0.33l0.01,5.09V91.58l-3.19-1.77h-0.33
										C157.61,95.66,150.69,99.51,144.89,100.32z"/>
									<g>
										<linearGradient id="SVGID_25_" gradientUnits="userSpaceOnUse" x1="103.8187" y1="91.9272" x2="162.218" y2="91.9272">
											<stop  offset="0" style="stop-color:#DFEDF6"/>
											<stop  offset="1" style="stop-color:#96CADF"/>
										</linearGradient>
										<path class="st35" d="M120.66,106.08L108.7,99.1c-6.51-3.76-6.51-9.88,0-13.64l13.05-7.68c6.51-3.76,17.11-3.76,23.63,0
											l11.95,6.98c6.51,3.76,6.51,9.88,0,13.64l-13.05,7.68C137.77,109.84,127.17,109.84,120.66,106.08z"/>
									</g>
									<g>
										<path class="st12" d="M132.54,107.01c-3.79,0-7.58-0.83-10.47-2.5l0,0l-10.51-6.14c-2.82-1.63-4.37-3.81-4.37-6.13
											c0-2.33,1.55-4.5,4.37-6.13l11.47-6.75c5.77-3.33,15.16-3.33,20.94,0l10.51,6.14c2.82,1.63,4.37,3.81,4.37,6.13
											c0,2.33-1.55,4.5-4.37,6.13l-11.47,6.75C140.12,106.17,136.33,107.01,132.54,107.01z M122.23,104.24
											c5.69,3.28,14.94,3.28,20.62,0l11.47-6.75c2.72-1.57,4.22-3.65,4.22-5.86c0-2.21-1.5-4.29-4.22-5.86l-10.51-6.14
											c-5.68-3.28-14.94-3.28-20.62,0l-11.47,6.75c-2.72,1.57-4.22,3.65-4.22,5.86c0,2.21,1.5,4.29,4.22,5.86L122.23,104.24z"/>
									</g>
									<g>
										<path class="st14" d="M157.33,98.4l-13.05,7.68c-6.51,3.76-17.11,3.76-23.63,0L108.7,99.1c-2.91-1.68-4.52-3.83-4.83-6.04
											c-0.38,2.72,1.22,5.53,4.83,7.61l11.95,6.98c6.51,3.76,17.11,3.76,23.63,0l13.05-7.68c3.6-2.08,5.21-4.88,4.83-7.61
											C161.85,94.56,160.24,96.72,157.33,98.4z"/>
									</g>
								</g>
							</g>
							<g>
								<path class="st16" d="M118.37,105.84l1.1-0.15c-0.15-0.07-0.3-0.15-0.45-0.23L118.37,105.84z"/>
								<path class="st16" d="M145.67,103.89l-0.06,0l-0.73,0.3C145.12,104.17,145.38,104.06,145.67,103.89z"/>
								<path class="st16" d="M158.82,93.47c0.02-0.25,0.02-0.45,0-0.63c-0.02,0.2-0.04,0.42-0.09,0.67L158.82,93.47z"/>
								<path class="st20" d="M162.22,98.4L162.22,98.4c0,0.11,0,0.21,0,0.32c-0.05,2.43-1.68,4.85-4.88,6.7l-13.05,7.68
									c-6.51,3.76-17.11,3.76-23.63,0l-11.95-6.98c-3.26-1.88-4.89-4.35-4.89-6.82h0V100h0c0,2.47,1.63,4.94,4.89,6.82l11.95,6.98
									c6.51,3.76,17.11,3.76,23.63,0l13.05-7.68c3.2-1.85,4.83-4.27,4.88-6.7c0-0.11,0-0.22-0.01-0.33l0.01,0V98.4z"/>
							</g>
						</g>
					</g>
				</g>
			</g>
			<g>
				<path class="st36" d="M223.31,147.25L223.31,147.25c0,0.13,0,0.27,0,0.4c-0.06,3.03-2.1,6.05-6.1,8.36l-69.45,40.1
					c-8.13,4.69-21.36,4.69-29.49,0l-69.45-40.1c-4.07-2.35-6.1-5.43-6.1-8.51h0v29.18h0c0,3.08,2.03,6.17,6.1,8.51l69.45,40.1
					c8.13,4.69,21.36,4.69,29.49,0l69.45-40.1c4-2.31,6.03-5.33,6.1-8.36c0-0.14,0-0.27-0.01-0.41l0.01,0V147.25z"/>
				<path class="st37" d="M223.31,147.15L223.31,147.15c0,0.13,0,0.27,0,0.4c-0.06,3.03-2.1,6.05-6.1,8.36l-69.45,40.1
					c-8.13,4.69-21.36,4.69-29.49,0l-69.45-40.1c-4.07-2.35-6.1-5.43-6.1-8.51h0v1.69h0c0,3.08,2.03,6.17,6.1,8.51l69.45,40.1
					c8.13,4.69,21.36,4.69,29.49,0l69.45-40.1c4-2.31,6.03-5.33,6.1-8.36c0-0.14,0-0.27-0.01-0.41l0.01,0V147.15z"/>
				<g>
					<g>
						<linearGradient id="SVGID_26_" gradientUnits="userSpaceOnUse" x1="62.0647" y1="56.2353" x2="202.597" y2="137.3717">
							<stop  offset="0" style="stop-color:#BCBEFF"/>
							<stop  offset="0.2271" style="stop-color:#AAADF8"/>
							<stop  offset="0.6802" style="stop-color:#7C83E5"/>
							<stop  offset="1" style="stop-color:#5761D7"/>
						</linearGradient>
						<path class="st38" d="M223.31,99.27l0-9.38l-4.35-2.42c-1.23,7.43-9.97,12.32-17.28,13.34l-49.76,29.1l-21.72,7.84
							l-69.32-35.77l1.6-0.93c-5.92-2.77-9.12-9.1-12.32-14.87l-4.67,2.78l-2.77,0.78v9.79h0c0,3.08,2.03,6.17,6.1,8.51l69.45,40.1
							c8.13,4.69,21.36,4.69,29.49,0l69.45-40.1c4-2.31,6.03-5.33,6.1-8.36C223.31,99.54,223.31,99.4,223.31,99.27L223.31,99.27z"/>
						<linearGradient id="SVGID_27_" gradientUnits="userSpaceOnUse" x1="62.0647" y1="56.2353" x2="202.597" y2="137.3717">
							<stop  offset="0" style="stop-color:#C895FD"/>
							<stop  offset="1" style="stop-color:#4B4BD3"/>
						</linearGradient>
						<path class="st39" d="M223.31,99.27l0-9.38l-4.35-2.42c-1.23,7.43-9.97,12.32-17.28,13.34l-49.76,29.1l-21.72,7.84
							l-69.32-35.77l1.6-0.93c-5.92-2.77-9.12-9.1-12.32-14.87l-4.67,2.78l-2.77,0.78v9.79h0c0,3.08,2.03,6.17,6.1,8.51l69.45,40.1
							c8.13,4.69,21.36,4.69,29.49,0l69.45-40.1c4-2.31,6.03-5.33,6.1-8.36C223.31,99.54,223.31,99.4,223.31,99.27L223.31,99.27z"/>
						<path class="st7" d="M201.68,100.8l-49.76,29.1l-18.9,6.83v14.92c5.34,0,10.68-1.17,14.75-3.52l69.45-40.1
							c4-2.31,6.03-5.33,6.1-8.36c0-0.14,0-0.27-0.01-0.41l0.01,76.27l0-85.65l-3.98-2.21h-0.42
							C217.56,94.98,208.92,99.8,201.68,100.8z"/>
						<radialGradient id="SVGID_28_" cx="132.2391" cy="96.0924" r="81.918" gradientUnits="userSpaceOnUse">
							<stop  offset="0" style="stop-color:#42E8E0"/>
							<stop  offset="0.0796" style="stop-color:#3AC4C9"/>
							<stop  offset="0.2064" style="stop-color:#2F92A8"/>
							<stop  offset="0.3361" style="stop-color:#25678C"/>
							<stop  offset="0.4662" style="stop-color:#1D4375"/>
							<stop  offset="0.597" style="stop-color:#172863"/>
							<stop  offset="0.7289" style="stop-color:#121556"/>
							<stop  offset="0.8623" style="stop-color:#10094F"/>
							<stop  offset="1" style="stop-color:#0F054C"/>
						</radialGradient>
						<path class="st40" d="M87.83,93.33c0.4-0.35,0.86-0.68,1.39-0.99l36.12-20.85c4.23-2.44,11.11-2.44,15.34,0l36.12,20.85
							c0.53,0.31,1,0.64,1.39,0.99c2.77-2.43,2.3-5.73-1.39-7.87L140.69,64.6c-4.23-2.44-11.11-2.44-15.34,0L89.23,85.46
							C85.53,87.59,85.06,90.9,87.83,93.33z"/>
						<linearGradient id="SVGID_29_" gradientUnits="userSpaceOnUse" x1="42.723" y1="89.887" x2="223.3136" y2="89.887">
							<stop  offset="0" style="stop-color:#DFEDF6"/>
							<stop  offset="1" style="stop-color:#96CADF"/>
						</linearGradient>
						<path class="st41" d="M217.21,81.37l-69.45-40.1c-8.13-4.69-21.36-4.7-29.49,0l-69.45,40.1c-8.13,4.69-8.13,12.33,0,17.03
							l69.45,40.1c8.13,4.69,21.36,4.69,29.49,0l69.45-40.1C225.35,93.71,225.35,86.07,217.21,81.37z M176.81,94.32l-36.12,20.85
							c-4.23,2.44-11.11,2.44-15.34,0L89.23,94.32c-4.23-2.44-4.23-6.42,0-8.86l36.12-20.85c4.23-2.44,11.11-2.44,15.34,0
							l36.12,20.85C181.04,87.9,181.04,91.87,176.81,94.32z"/>
						<path class="st42" d="M209.45,82.16l-63.04-36.4c-7.38-4.26-19.39-4.26-26.77,0l-63.04,36.4c-7.38,4.26-7.38,11.2,0,15.46
							l63.04,36.4c7.38,4.26,19.39,4.26,26.77,0l63.04-36.4C216.83,93.35,216.83,86.42,209.45,82.16z M186.68,95.31l-44.26,25.56
							c-5.18,2.99-13.62,2.99-18.8,0L79.35,95.31c-5.18-2.99-5.18-7.86,0-10.85l44.26-25.56c5.18-2.99,13.62-2.99,18.8,0
							l44.27,25.56C191.87,87.45,191.87,92.32,186.68,95.31z"/>
						<path class="st2" d="M209.45,82.16l-63.04-36.4c-7.38-4.26-19.39-4.26-26.77,0l-63.04,36.4c-7.38,4.26-7.38,11.2,0,15.46
							l63.04,36.4c7.38,4.26,19.39,4.26,26.77,0l63.04-36.4C216.83,93.35,216.83,86.42,209.45,82.16z M186.68,95.31l-44.26,25.56
							c-5.18,2.99-13.62,2.99-18.8,0L79.35,95.31c-5.18-2.99-5.18-7.86,0-10.85l44.26-25.56c5.18-2.99,13.62-2.99,18.8,0
							l44.27,25.56C191.87,87.45,191.87,92.32,186.68,95.31z"/>
						<g>
							<path class="st14" d="M217.22,98.4l-69.45,40.1c-8.13,4.69-21.36,4.69-29.49,0L48.82,98.4c-3.63-2.1-5.64-4.79-6.03-7.53
								c-0.48,3.4,1.53,6.9,6.03,9.5l69.45,40.1c8.13,4.69,21.36,4.69,29.49,0l69.45-40.1c4.5-2.6,6.5-6.09,6.02-9.49
								C222.85,93.62,220.85,96.3,217.22,98.4z"/>
						</g>
						<linearGradient id="SVGID_30_" gradientUnits="userSpaceOnUse" x1="62.6756" y1="89.8871" x2="203.3612" y2="89.8871">
							<stop  offset="0" style="stop-color:#C895FD"/>
							<stop  offset="1" style="stop-color:#4B4BD3"/>
						</linearGradient>
						<path class="st43" d="M133.02,130.58c-4.18,0-8.37-0.92-11.55-2.76L67.51,96.67c-3.12-1.8-4.84-4.21-4.84-6.78
							c0-2.57,1.72-4.98,4.84-6.78l53.95-31.15c6.37-3.68,16.74-3.68,23.11,0l53.95,31.15c3.12,1.8,4.83,4.21,4.83,6.78
							c0,2.57-1.72,4.98-4.83,6.78l-53.95,31.15C141.39,129.66,137.2,130.58,133.02,130.58z M133.02,49.58
							c-4.11,0-8.23,0.9-11.36,2.71L67.71,83.44c-2.99,1.73-4.64,4.02-4.64,6.45s1.65,4.72,4.64,6.45l53.95,31.15
							c6.26,3.62,16.46,3.62,22.72,0l53.95-31.15c2.99-1.73,4.64-4.02,4.64-6.44c0-2.43-1.65-4.72-4.64-6.45l-53.95-31.15
							C141.24,50.48,137.13,49.58,133.02,49.58z"/>
					</g>
				</g>
				<g class="st44">
					<linearGradient id="SVGID_31_" gradientUnits="userSpaceOnUse" x1="86.0551" y1="89.8044" x2="179.9816" y2="89.8044">
						<stop  offset="0" style="stop-color:#C895FD"/>
						<stop  offset="1" style="stop-color:#4B4BD3"/>
					</linearGradient>
					<path class="st45" d="M125.35,115.09L89.23,94.23c-4.23-2.44-4.23-6.42,0-8.86l36.12-20.85c4.23-2.44,11.11-2.44,15.34,0
						l36.12,20.85c4.23,2.44,4.23,6.41,0,8.86l-36.12,20.85C136.46,117.53,129.58,117.53,125.35,115.09z"/>
				</g>
				<linearGradient id="SVGID_32_" gradientUnits="userSpaceOnUse" x1="42.723" y1="163.422" x2="223.3136" y2="163.422">
					<stop  offset="0" style="stop-color:#4B4BD3"/>
					<stop  offset="1" style="stop-color:#C895FD"/>
				</linearGradient>
				<path class="st46" d="M223.31,176.42l0-77.85l-4.35,1.99c1.64-9.91-12.84,12.72-17.28,13.34l-49.76,29.1l-21.72,1.49
					l-69.32-29.42l1.6-0.92c-5.92-2.77-9.12-9.1-12.32-14.87l-4.67,2.78l-2.77-3.23v77.85l0,0c0,3.08,2.03,6.17,6.1,8.51l69.45,40.1
					c8.13,4.69,21.36,4.69,29.49,0l69.45-40.1c4-2.31,6.03-5.33,6.1-8.36c0-0.14,0-0.12-0.01-0.25L223.31,176.42z"/>
			</g>
		</g>
		<path class="st47" d="M162.21,143.95c0,0.11,0.01,0.22,0.01,0.33c-0.05,2.43-1.68,4.85-4.88,6.7l-13.05,7.68
			c-6.51,3.76-17.11,3.76-23.63,0l-11.95-6.98c-3.26-1.88-4.89-4.35-4.89-6.82h0v2.73v0.13v0.56v4.23v1.69v5.46v0.13v0.56v5.92h0
			c0,2.47,1.63,4.94,4.89,6.82l11.95,6.98c6.51,3.76,17.11,3.76,23.63,0l13.05-7.68c3.2-1.85,4.83-4.27,4.88-6.7
			c0-0.11,0-0.22-0.01-0.33l0.01,0v-0.83l0-5.09h0v0v-0.69l0-5.46l0,0v-0.83v-0.01v-0.53l0-4.55h0v-0.69L162.21,143.95
			L162.21,143.95z"/>
	</g>
	<linearGradient id="SVGID_33_" gradientUnits="userSpaceOnUse" x1="133.0183" y1="117.918" x2="133.0183" y2="0">
		<stop  offset="0" style="stop-color:#4B4BD3"/>
		<stop  offset="1" style="stop-color:#C895FD;stop-opacity:0"/>
	</linearGradient>
	<path class="st48" d="M179.98,0H86.06v90.8l0,0c0,1.6,1.06,3.21,3.17,4.43l36.12,20.85c4.23,2.44,11.11,2.44,15.34,0l36.12-20.85
		c2.11-1.22,3.17-2.82,3.17-4.43l0,0V0z"/>
	<g>
		<g>
			<path class="st3" d="M156.48,139.89l-9.41,5.43c-0.27,0.16-0.5-0.01-0.5-0.38l0,0c0-0.37,0.22-0.79,0.5-0.95l9.41-5.43
				c0.27-0.16,0.5,0.01,0.5,0.38l0,0C156.97,139.31,156.75,139.73,156.48,139.89z"/>
			<path class="st3" d="M175.85,128.71l-9.41,5.43c-0.27,0.16-0.5-0.01-0.5-0.38l0,0c0-0.37,0.22-0.79,0.5-0.95l9.41-5.43
				c0.27-0.16,0.5,0.01,0.5,0.38l0,0C176.34,128.12,176.12,128.55,175.85,128.71z"/>
			<path class="st3" d="M195.22,117.52l-9.41,5.43c-0.27,0.16-0.5-0.01-0.5-0.38l0,0c0-0.37,0.22-0.79,0.5-0.95l9.41-5.43
				c0.27-0.16,0.5,0.01,0.5,0.38l0,0C195.71,116.94,195.49,117.37,195.22,117.52z"/>
			<path class="st3" d="M214.58,106.34l-9.41,5.43c-0.27,0.16-0.5-0.01-0.5-0.38l0,0c0-0.37,0.22-0.79,0.5-0.95l9.41-5.43
				c0.27-0.16,0.5,0.01,0.5,0.38l0,0C215.08,105.76,214.86,106.18,214.58,106.34z"/>
		</g>
		<g>
			<path class="st3" d="M156.48,224.95l-9.41,5.43c-0.27,0.16-0.5-0.01-0.5-0.38l0,0c0-0.37,0.22-0.79,0.5-0.95l9.41-5.43
				c0.27-0.16,0.5,0.01,0.5,0.38l0,0C156.97,224.36,156.75,224.79,156.48,224.95z"/>
			<path class="st3" d="M175.85,213.76l-9.41,5.43c-0.27,0.16-0.5-0.01-0.5-0.38l0,0c0-0.37,0.22-0.79,0.5-0.95l9.41-5.43
				c0.27-0.16,0.5,0.01,0.5,0.38l0,0C176.34,213.18,176.12,213.6,175.85,213.76z"/>
			<path class="st3" d="M195.22,202.58l-9.41,5.43c-0.27,0.16-0.5-0.01-0.5-0.38l0,0c0-0.37,0.22-0.79,0.5-0.95l9.41-5.43
				c0.27-0.16,0.5,0.01,0.5,0.38l0,0C195.71,202,195.49,202.42,195.22,202.58z"/>
			<path class="st3" d="M214.58,191.4l-9.41,5.43c-0.27,0.16-0.5-0.01-0.5-0.38l0,0c0-0.37,0.22-0.79,0.5-0.95l9.41-5.43
				c0.27-0.16,0.5,0.01,0.5,0.38l0,0C215.08,190.81,214.86,191.24,214.58,191.4z"/>
		</g>
	</g>
	<g>
		<g>
			<path class="st3" d="M109.28,139.89l9.41,5.43c0.27,0.16,0.5-0.01,0.5-0.38l0,0c0-0.37-0.22-0.79-0.5-0.95l-9.41-5.43
				c-0.27-0.16-0.5,0.01-0.5,0.38l0,0C108.79,139.31,109.01,139.73,109.28,139.89z"/>
			<path class="st3" d="M89.92,128.71l9.41,5.43c0.27,0.16,0.5-0.01,0.5-0.38l0,0c0-0.37-0.22-0.79-0.5-0.95l-9.41-5.43
				c-0.27-0.16-0.5,0.01-0.5,0.38l0,0C89.42,128.12,89.64,128.55,89.92,128.71z"/>
			<path class="st3" d="M70.55,117.52l9.41,5.43c0.27,0.16,0.5-0.01,0.5-0.38l0,0c0-0.37-0.22-0.79-0.5-0.95l-9.41-5.43
				c-0.27-0.16-0.5,0.01-0.5,0.38l0,0C70.05,116.94,70.27,117.37,70.55,117.52z"/>
			<path class="st3" d="M51.18,106.34l9.41,5.43c0.27,0.16,0.5-0.01,0.5-0.38l0,0c0-0.37-0.22-0.79-0.5-0.95l-9.41-5.43
				c-0.27-0.16-0.5,0.01-0.5,0.38l0,0C50.68,105.76,50.9,106.18,51.18,106.34z"/>
		</g>
		<g>
			<path class="st3" d="M109.28,224.95l9.41,5.43c0.27,0.16,0.5-0.01,0.5-0.38l0,0c0-0.37-0.22-0.79-0.5-0.95l-9.41-5.43
				c-0.27-0.16-0.5,0.01-0.5,0.38l0,0C108.79,224.36,109.01,224.79,109.28,224.95z"/>
			<path class="st3" d="M89.92,213.76l9.41,5.43c0.27,0.16,0.5-0.01,0.5-0.38l0,0c0-0.37-0.22-0.79-0.5-0.95l-9.41-5.43
				c-0.27-0.16-0.5,0.01-0.5,0.38l0,0C89.42,213.18,89.64,213.6,89.92,213.76z"/>
			<path class="st3" d="M70.55,202.58l9.41,5.43c0.27,0.16,0.5-0.01,0.5-0.38l0,0c0-0.37-0.22-0.79-0.5-0.95l-9.41-5.43
				c-0.27-0.16-0.5,0.01-0.5,0.38l0,0C70.05,202,70.27,202.42,70.55,202.58z"/>
			<path class="st3" d="M51.18,191.4l9.41,5.43c0.27,0.16,0.5-0.01,0.5-0.38l0,0c0-0.37-0.22-0.79-0.5-0.95l-9.41-5.43
				c-0.27-0.16-0.5,0.01-0.5,0.38l0,0C50.68,190.81,50.9,191.24,51.18,191.4z"/>
		</g>
	</g>
</g>
<g>
	<g>
		<linearGradient id="SVGID_34_" gradientUnits="userSpaceOnUse" x1="17.1639" y1="277.8931" x2="82.0857" y2="277.8931">
			<stop  offset="0" style="stop-color:#C895FD"/>
			<stop  offset="1" style="stop-color:#4B4BD3"/>
		</linearGradient>
		<path class="st49" d="M82.09,271.97v-5.66l-1.56-0.87c-0.44,2.67-3.58,4.43-6.21,4.79L56.42,280.7l-7.81,2.82l-24.92-12.86
			l0.58-0.33c-2.13-0.99-3.28-3.27-4.43-5.35l-1.68,1l-1,0.28v5.8h0c0,1.11,0.73,2.22,2.19,3.06l24.97,14.41
			c2.92,1.69,7.68,1.69,10.6,0l24.97-14.41c1.44-0.83,2.17-1.92,2.19-3.01C82.09,272.07,82.08,272.02,82.09,271.97L82.09,271.97z"/>
		<path class="st7" d="M74.31,270.24L56.42,280.7l-6.8,2.45v7.65c1.92,0,3.84-0.42,5.3-1.27l24.97-14.41
			c1.44-0.83,2.17-1.92,2.19-3.01c0-0.05,0-0.1,0-0.15l0,0v-5.66l-1.43-0.8h-0.15C80.02,268.15,76.91,269.88,74.31,270.24z"/>
		<g>
			<linearGradient id="SVGID_35_" gradientUnits="userSpaceOnUse" x1="17.1639" y1="266.3164" x2="82.0857" y2="266.3164">
				<stop  offset="0" style="stop-color:#E9E9FD"/>
				<stop  offset="0.3601" style="stop-color:#D3D2F9"/>
				<stop  offset="0.7062" style="stop-color:#C5C4F7"/>
				<stop  offset="1" style="stop-color:#C0BFF6"/>
			</linearGradient>
			<path class="st50" d="M44.32,283.79l-24.97-14.41c-2.92-1.69-2.92-4.43,0-6.12l24.97-14.41c2.92-1.69,7.68-1.69,10.6,0
				l24.97,14.41c2.92,1.69,2.92,4.43,0,6.12l-24.97,14.41C52,285.48,47.25,285.48,44.32,283.79z"/>
		</g>
		<g>
			<linearGradient id="SVGID_36_" gradientUnits="userSpaceOnUse" x1="17.1639" y1="266.3164" x2="82.0857" y2="266.3164">
				<stop  offset="0" style="stop-color:#DFEDF6"/>
				<stop  offset="1" style="stop-color:#96CADF"/>
			</linearGradient>
			<path class="st51" d="M44.32,283.79l-24.97-14.41c-2.92-1.69-2.92-4.43,0-6.12l24.97-14.41c2.92-1.69,7.68-1.69,10.6,0
				l24.97,14.41c2.92,1.69,2.92,4.43,0,6.12l-24.97,14.41C52,285.48,47.25,285.48,44.32,283.79z"/>
		</g>
	</g>
	<g>
		<g>
			<linearGradient id="SVGID_37_" gradientUnits="userSpaceOnUse" x1="17.9422" y1="255.8908" x2="81.3074" y2="255.8908">
				<stop  offset="0" style="stop-color:#C895FD"/>
				<stop  offset="1" style="stop-color:#4B4BD3"/>
			</linearGradient>
			<path class="st52" d="M49.62,274.27c-1.7,0-3.41-0.37-4.71-1.12l-24.97-14.42c-1.3-0.75-2.01-1.76-2.01-2.84
				c0-1.09,0.71-2.1,2.01-2.84l24.97-14.41c2.59-1.5,6.82-1.5,9.41,0l24.97,14.42c1.3,0.75,2.01,1.76,2.01,2.84
				c0,1.08-0.71,2.09-2.01,2.84l-24.97,14.42C53.03,273.9,51.33,274.27,49.62,274.27z M45.14,272.77c2.47,1.43,6.5,1.43,8.97,0
				l24.97-14.42c1.16-0.67,1.79-1.54,1.79-2.46c0-0.92-0.64-1.8-1.79-2.46l-24.97-14.41c-2.47-1.43-6.5-1.43-8.97,0l-24.97,14.41
				c-1.16,0.67-1.79,1.54-1.79,2.46c0,0.92,0.64,1.8,1.79,2.46L45.14,272.77z"/>
			<g>
				<linearGradient id="SVGID_38_" gradientUnits="userSpaceOnUse" x1="17.1639" y1="254.8318" x2="82.0857" y2="254.8318">
					<stop  offset="0" style="stop-color:#C895FD"/>
					<stop  offset="1" style="stop-color:#4B4BD3"/>
				</linearGradient>
				<path class="st53" d="M82.09,250.36v-8.55l-1.56-0.87c-0.44,2.67-3.58,4.43-6.21,4.79l-17.89,10.46l-7.81,2.82l-24.92-12.86
					l0.58-0.33c-2.13-0.99-3.28-3.27-4.43-5.35l-1.68,1l-1,0.28v8.69h0c0,1.11,0.73,2.22,2.19,3.06l24.97,14.41
					c2.92,1.69,7.68,1.69,10.6,0l24.97-14.41c1.44-0.83,2.17-1.92,2.19-3.01C82.09,250.45,82.08,250.41,82.09,250.36L82.09,250.36z"
					/>
				<g>
					<g>
						<linearGradient id="SVGID_39_" gradientUnits="userSpaceOnUse" x1="23.6227" y1="225.8606" x2="75.1326" y2="255.5999">
							<stop  offset="0" style="stop-color:#C895FD"/>
							<stop  offset="1" style="stop-color:#4B4BD3"/>
						</linearGradient>
						<path class="st54" d="M82.09,242.76v-5.66l-1.56-0.87c-0.44,2.67-3.58,4.43-6.21,4.79l-17.89,10.46l-7.81,2.82l-24.92-12.86
							l0.58-0.33c-2.13-0.99-3.28-3.27-4.43-5.35l-1.68,1l-1,0.28v5.8h0c0,1.11,0.73,2.22,2.19,3.06l24.97,14.41
							c2.92,1.69,7.68,1.69,10.6,0l24.97-14.41c1.44-0.83,2.17-1.92,2.19-3.01C82.09,242.85,82.08,242.81,82.09,242.76L82.09,242.76
							z"/>
						<path class="st7" d="M74.31,241.03l-17.89,10.46l-6.8,2.45v7.65c1.92,0,3.84-0.42,5.3-1.27l24.97-14.41
							c1.44-0.83,2.17-1.92,2.19-3.01c0-0.05,0-0.1,0-0.15l0,0v-5.66l-1.43-0.8h-0.15C80.02,238.93,76.91,240.66,74.31,241.03z"/>
						<g>
							<g>
								<linearGradient id="SVGID_40_" gradientUnits="userSpaceOnUse" x1="17.1639" y1="237.102" x2="82.0857" y2="237.102">
									<stop  offset="0" style="stop-color:#DFEDF6"/>
									<stop  offset="1" style="stop-color:#96CADF"/>
								</linearGradient>
								<path class="st55" d="M44.32,254.58l-24.97-14.41c-2.92-1.69-2.92-4.43,0-6.12l24.97-14.41c2.92-1.69,7.68-1.69,10.6,0
									l24.97,14.41c2.92,1.69,2.92,4.43,0,6.12l-24.97,14.41C52,256.27,47.25,256.27,44.32,254.58z"/>
							</g>
						</g>
						<g>
							<path class="st14" d="M79.89,240.16l-24.97,14.41c-2.92,1.69-7.68,1.69-10.6,0l-24.97-14.41c-1.31-0.75-2.03-1.72-2.17-2.71
								c-0.17,1.22,0.55,2.48,2.17,3.41l24.97,14.41c2.92,1.69,7.68,1.69,10.6,0l24.97-14.41c1.62-0.93,2.34-2.19,2.17-3.41
								C81.92,238.44,81.2,239.41,79.89,240.16z"/>
						</g>
					</g>
				</g>
			</g>
		</g>
	</g>
</g>
<g>
	<g>
		<linearGradient id="SVGID_41_" gradientUnits="userSpaceOnUse" x1="186.4149" y1="274.1866" x2="251.3367" y2="274.1866">
			<stop  offset="0" style="stop-color:#C895FD"/>
			<stop  offset="1" style="stop-color:#4B4BD3"/>
		</linearGradient>
		<path class="st56" d="M251.34,268.27v-5.66l-1.56-0.87c-0.44,2.67-3.58,4.43-6.21,4.79L225.67,277l-7.81,2.82l-24.92-12.86
			l0.58-0.33c-2.13-0.99-3.28-3.27-4.43-5.35l-1.68,1l-1,0.28v5.8h0c0,1.11,0.73,2.22,2.19,3.06l24.97,14.41
			c2.92,1.69,7.68,1.69,10.6,0l24.97-14.41c1.44-0.83,2.17-1.92,2.19-3.01C251.34,268.36,251.33,268.31,251.34,268.27L251.34,268.27
			z"/>
		<path class="st7" d="M243.56,266.53L225.67,277l-6.8,2.45v7.65c1.92,0,3.84-0.42,5.3-1.27l24.97-14.41
			c1.44-0.83,2.17-1.92,2.19-3.01c0-0.05,0-0.1,0-0.15l0,0v-5.66l-1.43-0.8h-0.15C249.27,264.44,246.16,266.17,243.56,266.53z"/>
		<g>
			<linearGradient id="SVGID_42_" gradientUnits="userSpaceOnUse" x1="186.4149" y1="262.6099" x2="251.3367" y2="262.6099">
				<stop  offset="0" style="stop-color:#E9E9FD"/>
				<stop  offset="0.3601" style="stop-color:#D3D2F9"/>
				<stop  offset="0.7062" style="stop-color:#C5C4F7"/>
				<stop  offset="1" style="stop-color:#C0BFF6"/>
			</linearGradient>
			<path class="st57" d="M213.57,280.09l-24.97-14.41c-2.92-1.69-2.92-4.43,0-6.12l24.97-14.41c2.92-1.69,7.68-1.69,10.6,0
				l24.97,14.41c2.92,1.69,2.92,4.43,0,6.12l-24.97,14.41C221.25,281.77,216.5,281.77,213.57,280.09z"/>
		</g>
		<g>
			<linearGradient id="SVGID_43_" gradientUnits="userSpaceOnUse" x1="186.4149" y1="262.6099" x2="251.3367" y2="262.6099">
				<stop  offset="0" style="stop-color:#DFEDF6"/>
				<stop  offset="1" style="stop-color:#96CADF"/>
			</linearGradient>
			<path class="st58" d="M213.57,280.09l-24.97-14.41c-2.92-1.69-2.92-4.43,0-6.12l24.97-14.41c2.92-1.69,7.68-1.69,10.6,0
				l24.97,14.41c2.92,1.69,2.92,4.43,0,6.12l-24.97,14.41C221.25,281.77,216.5,281.77,213.57,280.09z"/>
		</g>
	</g>
	<g>
		<g>
			<linearGradient id="SVGID_44_" gradientUnits="userSpaceOnUse" x1="187.1932" y1="252.1843" x2="250.5584" y2="252.1843">
				<stop  offset="0" style="stop-color:#C895FD"/>
				<stop  offset="1" style="stop-color:#4B4BD3"/>
			</linearGradient>
			<path class="st59" d="M218.88,270.57c-1.7,0-3.41-0.37-4.71-1.12l-24.97-14.42c-1.3-0.75-2.01-1.76-2.01-2.84
				c0-1.09,0.71-2.1,2.01-2.84l24.97-14.41c2.59-1.5,6.82-1.5,9.41,0l24.97,14.42c1.3,0.75,2.01,1.76,2.01,2.84
				c0,1.08-0.71,2.09-2.01,2.84l-24.97,14.42C222.28,270.19,220.58,270.57,218.88,270.57z M214.39,269.06c2.47,1.43,6.5,1.43,8.97,0
				l24.97-14.42c1.16-0.67,1.79-1.54,1.79-2.46c0-0.92-0.64-1.8-1.79-2.46l-24.97-14.41c-2.47-1.43-6.5-1.43-8.97,0l-24.97,14.41
				c-1.16,0.67-1.79,1.54-1.79,2.46c0,0.92,0.64,1.8,1.79,2.46L214.39,269.06z"/>
			<g>
				<linearGradient id="SVGID_45_" gradientUnits="userSpaceOnUse" x1="186.4149" y1="251.1253" x2="251.3367" y2="251.1253">
					<stop  offset="0" style="stop-color:#C895FD"/>
					<stop  offset="1" style="stop-color:#4B4BD3"/>
				</linearGradient>
				<path class="st60" d="M251.34,246.65v-8.55l-1.56-0.87c-0.44,2.67-3.58,4.43-6.21,4.79l-17.89,10.46l-7.81,2.82l-24.92-12.86
					l0.58-0.33c-2.13-0.99-3.28-3.27-4.43-5.35l-1.68,1l-1,0.28v8.69h0c0,1.11,0.73,2.22,2.19,3.06l24.97,14.41
					c2.92,1.69,7.68,1.69,10.6,0l24.97-14.41c1.44-0.83,2.17-1.92,2.19-3.01C251.34,246.75,251.33,246.7,251.34,246.65
					L251.34,246.65z"/>
				<g>
					<g>
						<linearGradient id="SVGID_46_" gradientUnits="userSpaceOnUse" x1="192.8737" y1="222.1541" x2="244.3836" y2="251.8934">
							<stop  offset="0" style="stop-color:#C895FD"/>
							<stop  offset="1" style="stop-color:#4B4BD3"/>
						</linearGradient>
						<path class="st61" d="M251.34,239.05v-5.66l-1.56-0.87c-0.44,2.67-3.58,4.43-6.21,4.79l-17.89,10.46l-7.81,2.82l-24.92-12.86
							l0.58-0.33c-2.13-0.99-3.28-3.27-4.43-5.35l-1.68,1l-1,0.28v5.8h0c0,1.11,0.73,2.22,2.19,3.06l24.97,14.41
							c2.92,1.69,7.68,1.69,10.6,0l24.97-14.41c1.44-0.83,2.17-1.92,2.19-3.01C251.34,239.15,251.33,239.1,251.34,239.05
							L251.34,239.05z"/>
						<path class="st7" d="M243.56,237.32l-17.89,10.46l-6.8,2.45v7.65c1.92,0,3.84-0.42,5.3-1.27l24.97-14.41
							c1.44-0.83,2.17-1.92,2.19-3.01c0-0.05,0-0.1,0-0.15l0,0v-5.66l-1.43-0.8h-0.15C249.27,235.23,246.16,236.96,243.56,237.32z"
							/>
						<g>
							<g>
								<linearGradient id="SVGID_47_" gradientUnits="userSpaceOnUse" x1="186.4149" y1="233.3955" x2="251.3367" y2="233.3955">
									<stop  offset="0" style="stop-color:#DFEDF6"/>
									<stop  offset="1" style="stop-color:#96CADF"/>
								</linearGradient>
								<path class="st62" d="M213.57,250.87l-24.97-14.41c-2.92-1.69-2.92-4.43,0-6.12l24.97-14.41c2.92-1.69,7.68-1.69,10.6,0
									l24.97,14.41c2.92,1.69,2.92,4.43,0,6.12l-24.97,14.41C221.25,252.56,216.5,252.56,213.57,250.87z"/>
							</g>
						</g>
						<g>
							<path class="st14" d="M249.14,236.46l-24.97,14.41c-2.92,1.69-7.68,1.69-10.6,0l-24.97-14.41c-1.31-0.75-2.03-1.72-2.17-2.71
								c-0.17,1.22,0.55,2.48,2.17,3.41l24.97,14.41c2.92,1.69,7.68,1.69,10.6,0l24.97-14.41c1.62-0.93,2.34-2.19,2.17-3.41
								C251.17,234.74,250.45,235.7,249.14,236.46z"/>
						</g>
					</g>
				</g>
			</g>
		</g>
	</g>
</g>
</svg>
