<svg xmlns="http://www.w3.org/2000/svg" xmlns:xlink="http://www.w3.org/1999/xlink" viewBox="0 0 62 61.94"><defs><style>.cls-1{fill:url(#linear-gradient);}</style><linearGradient id="linear-gradient" y1="30.97" x2="62" y2="30.97" gradientUnits="userSpaceOnUse"><stop offset="0" stop-color="#4e45cf"/><stop offset="1" stop-color="#c68ff8"/></linearGradient></defs><title>Asset 2</title><g id="Layer_2" data-name="Layer 2"><g id="Layer_1-2" data-name="Layer 1"><path class="cls-1" d="M44.94,3.36C59,9.91,65.65,27.23,60,42A30.82,30.82,0,0,1,23.9,61c.69-2.2,1.38-4.39,2.08-6.59,12.78,1.48,22.29-3.06,27.3-15.17,3.38-8.17,1.22-18.54-4.57-24-.19.51-.38,1-.53,1.44q-4.47,13.8-8.93,27.6c-.45,1.42-1.06,2.65-2.61,3.15-2,.64-3.89-.41-4.64-2.69-1.58-4.82-3.13-9.65-4.69-14.48-.12-.34-.25-.68-.52-1.42L17.12,58.65A30.58,30.58,0,0,1,4.57,47.05,30,30,0,0,1,1.18,22.77C6.12,4.94,24.2-2.89,38.19,1c-.7,2.19-1.41,4.38-2.14,6.68-6.75-1.19-13-.11-18.63,3.82A23.55,23.55,0,0,0,8.66,22.85C5.2,32.14,8.48,42,13.42,46.7c.18-.53.35-1,.51-1.48L23.06,17l.3-.9a3.6,3.6,0,0,1,3.55-2.64,3.56,3.56,0,0,1,3.38,2.65c1.55,4.72,3.06,9.45,4.59,14.18.17.53.38,1.06.69,1.93Z"/></g></g></svg>